<svg width="141" height="65" viewBox="0 0 141 65" fill="none" xmlns="http://www.w3.org/2000/svg">
<path d="M78.8022 33.2413V26.0469H81.4641L85.971 33.2413H89.5062L84.5063 25.5551C85.0509 25.4239 85.8396 24.8431 86.8724 23.8127C88.3654 22.3138 89.1118 20.5058 89.1118 18.3887C89.1118 16.2903 88.3654 14.4917 86.8724 12.9929C85.6236 11.747 84.0931 11.0022 82.281 10.7587H75.8867V33.2413H78.8022ZM81.4641 23.1241H78.8022V13.6814H81.4641C82.7598 13.6814 83.8701 14.1404 84.795 15.0585C85.7199 15.9765 86.1823 17.0866 86.1823 18.3887C86.1823 19.7002 85.7199 20.8173 84.795 21.74C83.8701 22.6628 82.7598 23.1241 81.4641 23.1241ZM99.0412 33.6207C101.257 33.6207 103.149 32.8385 104.717 31.2741C105.036 30.9556 105.553 30.3045 106.266 29.3209L103.351 28.2811C102.975 28.7308 102.727 29.0212 102.605 29.1523C101.619 30.1266 100.431 30.6137 99.0412 30.6137C97.7549 30.6137 96.8675 30.3982 96.3793 29.9673L104.055 22.3091L105.52 20.8337C105.079 20.3372 104.811 20.0421 104.717 19.9485C104.492 19.7236 104.262 19.5129 104.027 19.3161C102.6 18.1733 100.938 17.6018 99.0412 17.6018C96.8347 17.6018 94.9474 18.384 93.3794 19.9485C91.8113 21.5129 91.0273 23.4005 91.0273 25.6113C91.0273 27.8221 91.8113 29.7097 93.3794 31.2741C94.9474 32.8385 96.8347 33.6207 99.0412 33.6207ZM94.4075 27.8174C94.154 27.4802 94.0272 26.7448 94.0272 25.6113C94.0272 24.2249 94.5178 23.0422 95.499 22.0632C96.4802 21.0843 97.661 20.5948 99.0412 20.5948C100.187 20.5948 100.924 20.7213 101.252 20.9742L94.4075 27.8174ZM116.337 33.2413L123.266 18.7822H119.97L115.604 28.1687L111.252 18.7822H107.957L114.872 33.2413H116.337ZM132.984 33.6207C135.2 33.6207 137.09 32.8385 138.653 31.2741C140.217 29.7097 140.998 27.8221 140.998 25.6113C140.998 23.4005 140.217 21.5129 138.653 19.9485C137.09 18.384 135.2 17.6018 132.984 17.6018C130.778 17.6018 128.89 18.384 127.322 19.9485C125.754 21.5129 124.97 23.4005 124.97 25.6113C124.97 27.8221 125.754 29.7097 127.322 31.2741C128.89 32.8385 130.778 33.6207 132.984 33.6207ZM132.984 30.6137C131.595 30.6137 130.409 30.1266 129.428 29.1523C128.447 28.1781 127.956 26.9977 127.956 25.6113C127.956 24.2342 128.447 23.0539 129.428 22.0703C130.409 21.0866 131.595 20.5948 132.984 20.5948C134.374 20.5948 135.559 21.0866 136.541 22.0703C137.522 23.0539 138.012 24.2342 138.012 25.6113C138.012 26.9977 137.522 28.1781 136.541 29.1523C135.559 30.1266 134.374 30.6137 132.984 30.6137Z" fill="black"/>
<path d="M76.6357 53.6373V47.4537H81.7121V46.7166H76.6357V41.2701H81.7121V40.533H75.8867V53.6373H76.6357ZM92.7554 53.7929C94.6418 53.7929 96.2521 53.1363 97.5864 51.8231C98.9207 50.51 99.5878 48.9252 99.5878 47.0687C99.5878 45.2123 98.9207 43.6275 97.5864 42.3143C96.2521 41.0012 94.6418 40.3446 92.7554 40.3446C90.8691 40.3446 89.2588 41.0012 87.9245 42.3143C86.5902 43.6275 85.9231 45.2123 85.9231 47.0687C85.9231 48.9252 86.5902 50.51 87.9245 51.8231C89.2588 53.1363 90.8691 53.7929 92.7554 53.7929ZM92.7554 53.0476C91.0799 53.0476 89.6499 52.4633 88.4654 51.2949C87.2809 50.1264 86.6887 48.7177 86.6887 47.0687C86.6887 45.4198 87.2809 44.0124 88.4654 42.8467C89.6499 41.681 91.0799 41.0981 92.7554 41.0981C94.4309 41.0981 95.8609 41.681 97.0454 42.8467C98.2299 44.0124 98.8222 45.4198 98.8222 47.0687C98.8222 48.7177 98.2299 50.1264 97.0454 51.2949C95.8609 52.4633 94.4309 53.0476 92.7554 53.0476ZM110.631 53.7929C112.517 53.7929 114.128 53.1363 115.462 51.8231C116.796 50.51 117.464 48.9252 117.464 47.0687C117.464 45.2123 116.796 43.6275 115.462 42.3143C114.128 41.0012 112.517 40.3446 110.631 40.3446C108.745 40.3446 107.135 41.0012 105.8 42.3143C104.466 43.6275 103.799 45.2123 103.799 47.0687C103.799 48.9252 104.466 50.51 105.8 51.8231C107.135 53.1363 108.745 53.7929 110.631 53.7929ZM110.631 53.0476C108.956 53.0476 107.526 52.4633 106.341 51.2949C105.157 50.1264 104.564 48.7177 104.564 47.0687C104.564 45.4198 105.157 44.0124 106.341 42.8467C107.526 41.681 108.956 41.0981 110.631 41.0981C112.307 41.0981 113.737 41.681 114.921 42.8467C116.106 44.0124 116.698 45.4198 116.698 47.0687C116.698 48.7177 116.106 50.1264 114.921 51.2949C113.737 52.4633 112.307 53.0476 110.631 53.0476ZM122.631 53.6373V53.6209H122.69C124.881 53.6209 126.579 53.0257 127.783 51.8354C129.114 50.525 129.78 48.9416 129.78 47.0851C129.78 45.2341 129.114 43.6507 127.783 42.3348C126.579 41.1445 124.881 40.5494 122.69 40.5494H122.631V40.533H121.883V53.6373H122.631ZM122.69 52.8756H122.631V41.3029H122.69C124.665 41.3029 126.182 41.8243 127.242 42.8672C128.424 44.0356 129.014 45.4416 129.014 47.0851C129.014 48.7341 128.424 50.1401 127.242 51.3031C126.182 52.3514 124.665 52.8756 122.69 52.8756ZM137.054 53.7929C138.141 53.7929 139.07 53.4134 139.841 52.6544C140.613 51.8955 140.998 50.9782 140.998 49.9025C140.998 48.8324 140.613 47.9205 139.841 47.167C139.115 46.4517 138.219 45.9248 137.153 45.5863C136.488 45.2806 135.966 44.9448 135.589 44.5789C135.184 44.1803 134.981 43.6998 134.981 43.1375C134.981 42.5696 135.184 42.0877 135.589 41.6919C135.994 41.296 136.482 41.0981 137.054 41.0981C137.625 41.0981 138.113 41.2947 138.518 41.6878C138.746 41.9117 138.909 42.1574 139.009 42.4249L139.683 42.1628C139.567 41.8025 139.356 41.4776 139.051 41.1882C138.496 40.6476 137.83 40.3774 137.054 40.3774C136.271 40.3774 135.606 40.649 135.056 41.1923C134.507 41.7356 134.232 42.384 134.232 43.1375C134.232 43.9073 134.507 44.5625 135.056 45.1031C135.606 45.6437 136.354 46.0695 137.303 46.3808C138.102 46.7029 138.776 47.1343 139.325 47.6748C139.952 48.2918 140.266 49.0344 140.266 49.9025C140.266 50.7762 139.952 51.5215 139.325 52.1385C138.699 52.7555 137.941 53.064 137.054 53.064C136.171 53.064 135.417 52.7555 134.79 52.1385C134.252 51.6088 133.944 50.9891 133.866 50.2793L133.159 50.5332C133.281 51.3358 133.65 52.0402 134.266 52.6463C135.037 53.4107 135.966 53.7929 137.054 53.7929Z" fill="black"/>
<path fill-rule="evenodd" clip-rule="evenodd" d="M32.5557 0C50.5358 0 65.1115 14.5507 65.1115 32.5C65.1115 50.4493 50.5358 65 32.5557 65C14.5757 65 0 50.4493 0 32.5C0 14.5507 14.5757 0 32.5557 0ZM45.4053 21.422C44.7653 21.3367 44.1319 21.3064 43.4301 21.5074C42.527 21.766 41.923 22.2897 41.2838 22.8441C40.6417 23.4008 39.9778 23.9766 38.9959 24.2578C38.014 24.539 37.1455 24.4022 36.3056 24.2698C35.4693 24.138 34.6794 24.0136 33.7763 24.2723C32.8731 24.5309 32.2692 25.0546 31.6299 25.609C30.9879 26.1658 30.324 26.7415 29.3421 27.0227C28.3602 27.3039 27.4917 27.1671 26.6519 27.0348C25.8155 26.903 25.0255 26.7785 24.1224 27.0372C23.6773 27.1647 23.3048 27.3566 22.9651 27.5846C22.9709 27.7817 22.9766 27.9813 22.9824 28.1832C23.0279 29.7806 23.0756 31.41 23.1256 33.0714C23.1756 34.7329 23.2177 36.3596 23.2519 37.9517C23.286 39.5439 23.3146 40.9785 23.3375 42.2557C23.3605 43.5328 23.3816 44.5854 23.401 45.4135C23.4203 46.2416 23.4262 46.7227 23.4185 46.8568C23.42 47.1191 23.5321 53.3041 23.714 53.8291C23.8959 54.3541 24.1625 54.7498 24.5138 55.0162C24.865 55.2826 25.3263 55.3213 25.8976 55.1324C26.5021 54.9314 27.0161 54.5851 27.4394 54.0934C27.8627 53.6017 28.2109 53.02 28.4839 52.3484C28.7569 51.6767 28.9654 50.9441 29.1092 50.1506C29.2531 49.357 29.358 48.5729 29.424 47.7982C29.4901 47.0236 29.5262 46.2832 29.5325 45.5772C29.5389 44.8711 29.5323 44.2589 29.5128 43.7405C29.4915 43.2557 29.4774 42.7761 29.4704 42.3018L29.4614 41.3568C29.4545 40.8825 29.4404 40.403 29.4191 39.9181C30.448 40.5199 32.2254 41.6518 34.7515 43.3139C37.2776 44.976 39.6059 46.0953 41.7365 46.6719C43.8671 47.2486 45.4334 47.336 46.4355 46.9342C47.4375 46.5323 48.0829 46.1851 48.3717 45.8925C48.6604 45.5998 48.8812 45.2756 49.0339 44.9198C49.1867 44.564 49.1997 44.2121 49.0729 43.8641C49.0004 43.6653 48.8932 43.4744 48.7512 43.2914C48.6092 43.1084 48.4362 42.9696 48.2323 42.8748C46.7878 42.2177 45.3573 41.6633 43.9407 41.2118C42.5242 40.7603 41.142 40.287 39.7942 39.7917C38.4464 39.2964 37.1458 38.7371 35.8925 38.1136C34.6392 37.4902 33.4453 36.681 32.3108 35.6859C33.2933 34.9722 34.3685 34.1638 35.5362 33.2607C36.7039 32.3576 37.8585 31.3796 38.9998 30.3266C40.1412 29.2736 41.2134 28.1472 42.2165 26.9475C43.2196 25.7477 44.0411 24.5013 44.6808 23.2085C44.9712 22.6216 45.2129 22.0262 45.4053 21.422ZM36.9025 10.0751L36.5193 10.08C35.7507 10.0973 34.9691 10.1589 34.1745 10.2648C33.1152 10.4059 32.0754 10.601 31.0552 10.8498C30.0351 11.0987 29.0561 11.3702 28.1183 11.6642C27.1805 11.9582 26.321 12.2474 25.5395 12.5313C23.9888 13.1326 22.4403 13.8175 20.8941 14.5861C19.3479 15.3546 17.8704 16.1826 16.4616 17.0701C15.6917 17.5551 17.476 18.1205 19.3118 18.5273L19.5463 18.5784C20.9914 18.8877 22.4025 19.0924 22.5585 19.0761C22.6023 19.2478 22.6482 19.7613 22.6962 20.6165C22.7442 21.4717 22.7926 22.5472 22.8412 23.8432C22.8454 23.9548 22.8496 24.0676 22.8537 24.1814C23.1 24.0518 23.367 23.9403 23.6629 23.8555C24.6448 23.5743 25.5132 23.7112 26.3531 23.8435C27.1894 23.9752 27.9794 24.0997 28.8825 23.8411C29.7856 23.5824 30.3895 23.0587 31.0289 22.5043C31.6709 21.9476 32.3348 21.3718 33.3167 21.0906C34.2986 20.8094 35.1671 20.9463 36.0069 21.0786C36.8433 21.2103 37.6332 21.3348 38.5363 21.0762C39.4395 20.8175 40.0434 20.2938 40.6827 19.7394C41.3247 19.1827 41.9886 18.6069 42.9705 18.3257C43.9524 18.0445 44.8209 18.1813 45.6608 18.3136C45.7581 18.329 45.8547 18.3442 45.9518 18.3589C45.9739 17.2609 45.7811 16.1521 45.3729 15.0327C45.1253 14.3533 44.7641 13.7105 44.289 13.1044C43.814 12.4983 43.2773 11.9943 42.679 11.5925C41.9433 11.0718 41.1134 10.6932 40.1894 10.4568C39.2654 10.2203 38.2968 10.0939 37.2835 10.0775L36.9025 10.0751Z" fill="black"/>
<path d="M43.4295 21.5076C44.1314 21.3065 44.7648 21.3369 45.4048 21.4222C45.2124 22.0264 44.9707 22.6218 44.6803 23.2087C44.0405 24.5015 43.2191 25.7479 42.216 26.9477C41.2129 28.1474 40.1406 29.2738 38.9993 30.3268C37.858 31.3798 36.7034 32.3578 35.5357 33.2609C34.368 34.1639 33.2928 34.9724 32.3103 35.6861C33.4448 36.6812 34.6387 37.4904 35.892 38.1138C37.1453 38.7373 38.4459 39.2966 39.7937 39.7919C41.1415 40.2872 42.5236 40.7605 43.9402 41.212C45.3568 41.6635 46.7873 42.2179 48.2318 42.875C48.4357 42.9698 48.6087 43.1086 48.7507 43.2916C48.8927 43.4746 48.9999 43.6655 49.0724 43.8643C49.1992 44.2123 49.1862 44.5642 49.0334 44.92C48.8807 45.2758 48.6599 45.6 48.3712 45.8927C48.0824 46.1853 47.437 46.5325 46.4349 46.9344C45.4329 47.3362 43.8666 47.2488 41.736 46.6721C39.6054 46.0955 37.2771 44.9762 34.751 43.3141C32.2249 41.652 30.4474 40.5201 29.4185 39.9183C29.447 40.5648 29.4626 41.2018 29.4654 41.8295L29.4699 42.302C29.4768 42.7763 29.491 43.2559 29.5123 43.7407C29.5318 44.2591 29.5383 44.8713 29.532 45.5774C29.5257 46.2834 29.4895 47.0237 29.4235 47.7984C29.3575 48.5731 29.2526 49.3572 29.1087 50.1508C28.9648 50.9443 28.7564 51.6769 28.4834 52.3486C28.2103 53.0202 27.8622 53.6019 27.4389 54.0936C27.0155 54.5852 26.5016 54.9316 25.8971 55.1326C25.3258 55.3215 24.8645 55.2828 24.5132 55.0164C24.162 54.75 23.8954 54.3543 23.7135 53.8293C23.5316 53.3043 23.4194 47.1192 23.418 46.857C23.4256 46.7229 23.4198 46.2418 23.4004 45.4137C23.3811 44.5856 23.36 43.533 23.337 42.2559C23.3141 40.9787 23.2855 39.5441 23.2514 37.9519C23.2172 36.3598 23.1751 34.7331 23.1251 33.0716C23.0751 31.4102 23.0274 29.7808 22.9819 28.1834C22.9761 27.9815 22.9703 27.7819 22.9645 27.5848C23.3043 27.3568 23.6768 27.1649 24.1219 27.0374C25.025 26.7787 25.815 26.9031 26.6514 27.0349C27.4912 27.1673 28.3597 27.3041 29.3416 27.0229C30.3235 26.7417 30.9873 26.166 31.6294 25.6092C32.2687 25.0548 32.8726 24.5311 33.7758 24.2725C34.6789 24.0138 35.4688 24.1382 36.3051 24.27C37.145 24.4024 38.0135 24.5392 38.9953 24.258C39.9773 23.9768 40.6412 23.401 41.2832 22.8443C41.9225 22.2898 42.5265 21.7662 43.4295 21.5076ZM36.9019 10.0753L37.283 10.0777C38.2962 10.0941 39.2649 10.2205 40.1889 10.457C41.1129 10.6934 41.9428 11.072 42.6785 11.5927C43.2768 11.9945 43.8134 12.4985 44.2885 13.1046C44.7635 13.7107 45.1247 14.3535 45.3724 15.0329C45.7806 16.1523 45.9734 17.2611 45.9512 18.3591C45.8542 18.3444 45.7575 18.3292 45.6603 18.3138C44.8204 18.1815 43.9519 18.0447 42.97 18.3259C41.9881 18.6071 41.3242 19.1828 40.6822 19.7396C40.0429 20.2939 39.439 20.8176 38.5358 21.0763C37.6327 21.335 36.8427 21.2105 36.0063 21.0788C35.1665 20.9465 34.2981 20.8096 33.3162 21.0908C32.3343 21.372 31.6704 21.9478 31.0284 22.5045C30.3889 23.0589 29.7851 23.5826 28.882 23.8413C27.9788 24.0999 27.1889 23.9754 26.3526 23.8437C25.5127 23.7114 24.6442 23.5745 23.6624 23.8557C23.3665 23.9405 23.0994 24.052 22.8532 24.1816C22.849 24.0678 22.8449 23.955 22.8407 23.8434C22.7921 22.5474 22.7437 21.4718 22.6957 20.6167C22.6476 19.7615 22.6017 19.248 22.558 19.0763C22.4019 19.0926 20.9909 18.8879 19.5457 18.5786L19.3113 18.5275C17.4755 18.1207 15.6912 17.5553 16.4611 17.0703C17.8698 16.1828 19.3473 15.3548 20.8936 14.5863C22.4398 13.8177 23.9883 13.1328 25.539 12.5315C26.3204 12.2476 27.18 11.9584 28.1178 11.6644C29.0556 11.3704 30.0346 11.0989 31.0547 10.85C32.0749 10.6012 33.1146 10.4061 34.174 10.265C35.2334 10.1238 36.2697 10.0614 37.283 10.0777L36.9019 10.0753Z" fill="white"/>
</svg>
